<?xml version="1.0" encoding="UTF-8" standalone="no"?>
<!-- Created with Inkscape (http://www.inkscape.org/) -->

<svg
   width="256"
   height="256"
   viewBox="0 0 67.733332 67.733333"
   version="1.1"
   id="svg5"
   inkscape:version="1.2 (dc2aeda, 2022-05-15)"
   xml:space="preserve"
   sodipodi:docname="mint.svg"
   xmlns:inkscape="http://www.inkscape.org/namespaces/inkscape"
   xmlns:sodipodi="http://sodipodi.sourceforge.net/DTD/sodipodi-0.dtd"
   xmlns="http://www.w3.org/2000/svg"
   xmlns:svg="http://www.w3.org/2000/svg"><sodipodi:namedview
     id="namedview7"
     pagecolor="#282a36"
     bordercolor="#6dcaf6"
     borderopacity="1"
     inkscape:showpageshadow="0"
     inkscape:pageopacity="0"
     inkscape:pagecheckerboard="0"
     inkscape:deskcolor="#282a36"
     inkscape:document-units="px"
     showgrid="false"
     inkscape:zoom="2.3911063"
     inkscape:cx="84.897939"
     inkscape:cy="127.55602"
     inkscape:window-width="1880"
     inkscape:window-height="995"
     inkscape:window-x="20"
     inkscape:window-y="65"
     inkscape:window-maximized="0"
     inkscape:current-layer="layer1" /><defs
     id="defs2" /><g
     inkscape:label="Layer 1"
     inkscape:groupmode="layer"
     id="layer1"><path
       d="M -4.9862144,47.570862 V 15.392274 c 0,-10.7505143 -9.4277776,-19.4650877 -21.0601816,-19.4650877 h -12.073316 v -0.025967 L -70.773379,-4.2414602 V 7.4994307 h 5.012538 c 3.498864,0 4.116975,2.415327 4.116975,5.7584183 l 0.02597,20.756586 c 0,10.750514 9.427843,19.465087 21.047231,19.465087 h 28.688255 c 3.6778591,0 6.896128,-2.329155 6.896128,-5.908705 z"
       fill="url(#e)"
       fill-rule="evenodd"
       id="path349"
       style="stroke-width:0.650793" /><path
       d="M -7.8331166,50.292316 C -15.169676,45.236499 -20.365821,39.428997 -24.742728,31.740751 -33.370715,15.802201 -31.353335,7.8901418 -52.719341,6.0244429 c -6.165971,0 -10.270284,-1.3647129 -16.76038,-1.3647129 v 2.2603057 c 0,6.8e-6 2.564759,1.301588 4.819142,1.301588 3.361765,6.9e-6 3.944873,2.3320553 3.944873,5.5441463 l 0.02132,19.894101 c 0,10.329239 9.072065,18.700797 20.236099,18.700797 h 27.55014 c 2.022218,0 3.8387467,-0.796903 5.0750264,-2.068393 z"
       fill="url(#c)"
       filter="url(#a)"
       opacity="0.175"
       id="path351"
       style="stroke-width:0.682356" /><path
       d="m -33.366894,7.9923588 c -2.618004,0 -4.944177,0.9719826 -6.81322,2.8600292 -1.868101,1.887043 -2.848975,4.242865 -2.848968,6.901489 v 13.438805 h 6.095463 V 17.753877 c 0,-1.019017 0.332499,-1.815805 1.060075,-2.550771 0.729964,-0.73732 1.502958,-1.071102 2.50665,-1.071102 1.024729,0 1.786122,0.332103 2.517683,1.071102 0.727583,0.734966 1.060082,1.531754 1.060082,2.550771 v 13.438805 h 6.09547 V 17.753877 c 0,-1.019017 0.332498,-1.815805 1.060081,-2.550771 0.731561,-0.738999 1.492955,-1.071102 2.517698,-1.071102 1.003698,0 1.776672,0.333782 2.506636,1.071102 0.727576,0.734966 1.060082,1.531754 1.060082,2.550771 L -16.516,33.4564 c 0,3.349646 -3.189921,6.172719 -7.288044,6.172719 l -19.655618,-0.07728 c -3.162524,0 -5.863578,-3.078226 -5.863578,-7.034071 V 2.9476431 h -5.764178 V 33.655115 c 0,3.258055 1.192199,6.115129 3.511515,8.425465 1.982375,1.956725 4.366446,3.114581 7.045125,3.401048 v 0.110481 h 21.886242 c 3.363143,0 6.317829,-1.250521 8.701477,-3.677246 h 0.01105 c 2.027295,-2.082859 3.212446,-4.578598 3.500468,-7.387328 l -0.02211,-16.773617 c 0,-2.658631 -0.980846,-5.014453 -2.848981,-6.90149 -1.869016,-1.8880456 -4.19521,-2.8600282 -6.813207,-2.8600282 -2.569781,0 -4.818344,0.9555855 -6.63655,2.7054002 -1.812892,-1.7469283 -4.045746,-2.7054002 -6.614463,-2.7054002 z"
       fill-opacity="0.08"
       fill-rule="evenodd"
       filter="url(#b)"
       id="path353"
       style="stroke-width:0.682356" /><g
       id="g671"
       transform="matrix(0.87845465,0,0,0.87845465,67.408158,12.312472)"
       style="fill:#50fa7b;fill-opacity:1"><path
         d="m -33.853438,8.1490782 c -2.618004,0 -4.944179,0.9719789 -6.813217,2.8600268 -1.868108,1.887039 -2.848976,4.242864 -2.84897,6.901464 v 13.438745 h 6.095464 V 17.910569 c 0,-1.019011 0.332497,-1.815803 1.06007,-2.55077 0.729968,-0.737316 1.502961,-1.071101 2.506653,-1.071101 1.024725,0 1.786121,0.332106 2.517684,1.071101 0.72758,0.734967 1.060083,1.531759 1.060083,2.55077 v 13.438745 h 6.095457 V 17.910569 c 0,-1.019011 0.332503,-1.815803 1.06009,-2.55077 0.731556,-0.738995 1.492951,-1.071101 2.517696,-1.071101 1.003699,0 1.776672,0.333785 2.506627,1.071101 0.72758,0.734967 1.060083,1.531759 1.060083,2.55077 l 0.03313,15.702528 c 0,3.349645 -3.189921,6.172713 -7.288036,6.172713 l -19.655639,-0.07728 c -3.162522,0 -5.863574,-3.078224 -5.863574,-7.034095 V 3.1043524 h -5.764177 V 33.811823 c 0,3.258052 1.192201,6.115125 3.511516,8.425492 1.982374,1.956719 4.36645,3.225108 7.045094,3.511574 l 21.886233,-5.2e-5 c 3.363142,0 6.31782,-1.250518 8.701493,-3.67724 h 0.01106 c 2.027285,-2.082863 3.212444,-4.578596 3.500466,-7.387347 l -0.02206,-16.773668 c 0,-2.658626 -0.980836,-5.014451 -2.84897,-6.901464 -1.869019,-1.8880479 -4.195213,-2.8600268 -6.813217,-2.8600268 -2.569779,0 -4.818341,0.9555854 -6.636526,2.7053988 -1.812895,-1.7469304 -4.045739,-2.7053988 -6.614465,-2.7053988 z"
         fill="#ffffff"
         fill-rule="evenodd"
         id="path355"
         style="stroke-width:0.650793;fill:#50fa7b;fill-opacity:1" /><path
         d="m -40.761606,57.935391 c -13.855447,0 -25.879303,-10.503733 -25.879303,-24.346816 l -0.01243,-16.80842 v -4.286142 h -8.784273 V -8.8624092 l 37.043396,0.1744516 11.587759,0.024925 c 13.867878,0 25.87930341,10.4912383 25.87930341,24.3466856 V 57.935346 H -40.76154 Z M -6.5715461,46.601376 V 15.683699 c 0,-10.3292559 -9.0583219,-18.7023583 -20.2349109,-18.7023583 h -11.600189 v -0.024925 L -69.780724,-3.1806742 V 6.8496074 h 3.514522 c 2.386068,0 5.257236,2.2422876 5.257236,5.5327686 l 0.02493,21.193854 c 0,10.329256 9.058387,18.702358 20.22248,18.702358 h 27.564076 c 3.5337342,0 6.6259184,-2.237888 6.6259184,-5.677173 z"
         fill="#ffffff"
         fill-rule="evenodd"
         id="path359"
         style="stroke-width:0.650793;fill:#50fa7b;fill-opacity:1" /></g></g></svg>
