<?xml version="1.0" encoding="UTF-8" standalone="no"?>
<!-- Created with Inkscape (http://www.inkscape.org/) -->

<svg
   width="512"
   height="512"
   viewBox="0 0 135.46666 135.46667"
   version="1.1"
   id="svg3929"
   xml:space="preserve"
   inkscape:version="1.2 (dc2aedaf03, 2022-05-15)"
   sodipodi:docname="2d.svg"
   inkscape:export-filename="console.svg"
   inkscape:export-xdpi="96"
   inkscape:export-ydpi="96"
   xmlns:inkscape="http://www.inkscape.org/namespaces/inkscape"
   xmlns:sodipodi="http://sodipodi.sourceforge.net/DTD/sodipodi-0.dtd"
   xmlns="http://www.w3.org/2000/svg"
   xmlns:svg="http://www.w3.org/2000/svg"><sodipodi:namedview
     id="namedview3931"
     pagecolor="#505050"
     bordercolor="#eeeeee"
     borderopacity="1"
     inkscape:showpageshadow="0"
     inkscape:pageopacity="0"
     inkscape:pagecheckerboard="0"
     inkscape:deskcolor="#505050"
     inkscape:document-units="px"
     showgrid="false"
     inkscape:zoom="1.0626584"
     inkscape:cx="271.01842"
     inkscape:cy="289.36862"
     inkscape:window-width="1910"
     inkscape:window-height="987"
     inkscape:window-x="0"
     inkscape:window-y="0"
     inkscape:window-maximized="1"
     inkscape:current-layer="layer1" /><defs
     id="defs3926" /><g
     inkscape:label="Layer 1"
     inkscape:groupmode="layer"
     id="layer1"><g
       inkscape:label="Layer 1"
       id="layer1-3"
       transform="translate(126.99999)"
       style="fill:#6272a4;fill-opacity:1;stroke:none"><rect
         style="fill:#9083ce;fill-opacity:0;stroke:none;stroke-width:12.6999"
         id="rect234"
         width="135.46666"
         height="135.46667"
         x="-126.99999"
         y="0" /><rect
         style="fill:#9083ce;fill-opacity:0;stroke:none;stroke-width:12.6999"
         id="rect2611"
         width="76.199997"
         height="76.200012"
         x="-97.366661"
         y="29.633335" /></g><g
       inkscape:label="Layer 1"
       id="layer1-6"
       transform="translate(126.99999)"
       style="fill:#6272a4;fill-opacity:1;stroke:none"><rect
         style="fill:#9083ce;fill-opacity:0;stroke:none;stroke-width:12.6999"
         id="rect234-7"
         width="135.46666"
         height="135.46667"
         x="-126.99999"
         y="0" /><rect
         style="fill:#9083ce;fill-opacity:0;stroke:none;stroke-width:12.6999"
         id="rect2611-5"
         width="76.199997"
         height="76.200012"
         x="-97.366661"
         y="29.633335" /></g><g
       inkscape:label="Layer 1"
       id="layer1-7"
       transform="translate(126.99999)"
       style="fill:#6272a4;fill-opacity:1;stroke:none"><rect
         style="fill:#9083ce;fill-opacity:0;stroke:none;stroke-width:12.6999"
         id="rect234-0"
         width="135.46666"
         height="135.46667"
         x="-126.99999"
         y="0" /><rect
         style="fill:#9083ce;fill-opacity:0;stroke:none;stroke-width:12.6999"
         id="rect2611-9"
         width="76.199997"
         height="76.200012"
         x="-97.366661"
         y="29.633335" /></g><g
       id="layer2-3"
       inkscape:label="Layer 2"
       transform="matrix(1.1884863,0,0,1.1884863,138.17095,-12.766817)"
       style="fill:#e6e0cd;fill-opacity:1;stroke-width:0.841406"><path
         id="path2270"
         style="fill:#e6e0cd;fill-opacity:1;stroke:none;stroke-width:2.67147;stroke-linecap:round"
         d="m -57.451633,30.062782 c -0.699347,-0.0046 -1.411261,0.0013 -2.135888,0.01753 -27.236321,0.609049 -38.835261,18.699975 -38.129581,33.879637 0.30501,30.132638 21.373364,49.335271 37.415951,38.292421 6.110932,-5.263053 -4.009151,-4.352853 -5.444304,-12.807611 -1.287483,-16.270192 25.821927,0.05169 41.476891,-13.63818 5.162877,-4.514808 10.875745,-45.454727 -33.183069,-45.743794 z m -13.07393,4.88836 c 3.968996,1e-5 7.1865,3.440739 7.186508,7.685094 1.99e-4,4.244511 -3.217366,7.685483 -7.186508,7.685494 -3.969145,-5e-6 -7.186716,-3.440979 -7.186516,-7.685494 7e-6,-4.244359 3.217517,-7.685089 7.186516,-7.685094 z m 26.240514,1.52709 c 3.61473,7e-6 6.545046,3.133621 6.545052,6.999131 -7e-6,3.865511 -2.930323,6.999124 -6.545052,6.999131 -3.614728,-8e-6 -6.545043,-3.133621 -6.545051,-6.999131 7e-6,-3.86551 2.930322,-6.999123 6.545051,-6.999131 z m -41.75197,18.647269 c 3.805995,8e-6 6.891362,3.299431 6.891369,7.369476 -7e-6,4.070046 -3.085374,7.369468 -6.891369,7.369476 -3.805995,-8e-6 -6.891361,-3.29943 -6.891368,-7.369476 7e-6,-4.070045 3.085373,-7.369468 6.891368,-7.369476 z m 55.06252,-0.644981 c 3.641084,7e-6 6.592764,3.156467 6.592771,7.050161 -7e-6,3.893693 -2.951687,7.050154 -6.592771,7.050161 -3.641083,-8e-6 -6.592763,-3.156468 -6.592769,-7.050161 6e-6,-3.893693 2.951686,-7.050153 6.592769,-7.050161 z"
         sodipodi:nodetypes="sccccsssscscsssssscssscsssss" /></g></g></svg>
