<?xml version="1.0" encoding="UTF-8" standalone="no"?>
<!-- Created with Inkscape (http://www.inkscape.org/) -->

<svg
   width="512"
   height="512"
   viewBox="0 0 135.46666 135.46667"
   version="1.1"
   id="svg3929"
   xml:space="preserve"
   xmlns="http://www.w3.org/2000/svg"
   xmlns:svg="http://www.w3.org/2000/svg"><defs
     id="defs3926" /><g
     id="layer1"><path
       fill="#1793d1"
       d="m 67.723769,18.066632 c -4.4214,10.839214 -7.087867,17.930069 -12.010163,28.447703 3.017931,3.199044 6.722059,6.924091 12.738197,11.132099 C 61.984378,54.98475 57.57314,52.312305 54.275472,49.540038 47.976008,62.685288 38.105713,81.410932 18.076422,117.40018 33.819401,108.3147 46.022033,102.708 57.395017,100.57411 c -0.488346,-2.104 -0.76569,-4.37537 -0.747161,-6.742375 l 0.01853,-0.50807 c 0.249851,-10.083684 5.496116,-17.839212 11.7113,-17.312615 6.215182,0.526599 11.044829,9.135686 10.793783,19.21937 -0.04184,1.900777 -0.257023,3.723849 -0.633591,5.41542 11.249257,2.19964 23.323382,7.78841 38.852372,16.75434 -3.06037,-5.63658 -5.79797,-10.71728 -8.40407,-15.55888 -4.11237,-3.185896 -8.39808,-7.334132 -17.148835,-11.823075 6.01315,1.566051 10.316805,3.365212 13.676025,5.379558 C 78.974219,45.984747 76.82658,39.419892 67.723172,18.069621 l 5.97e-4,-0.0032 z"
       id="path4778"
       style="fill:#e6e0cd;fill-opacity:1;stroke-width:0.264583" /></g></svg>
