<?xml version="1.0" encoding="UTF-8" standalone="no"?>
<!-- Created with Inkscape (http://www.inkscape.org/) -->

<svg
   width="512"
   height="512"
   viewBox="0 0 135.46666 135.46667"
   version="1.1"
   id="svg3929"
   xml:space="preserve"
   inkscape:version="1.2 (dc2aedaf03, 2022-05-15)"
   sodipodi:docname="game.svg"
   inkscape:export-filename="game.svg"
   inkscape:export-xdpi="96"
   inkscape:export-ydpi="96"
   xmlns:inkscape="http://www.inkscape.org/namespaces/inkscape"
   xmlns:sodipodi="http://sodipodi.sourceforge.net/DTD/sodipodi-0.dtd"
   xmlns="http://www.w3.org/2000/svg"
   xmlns:svg="http://www.w3.org/2000/svg"><sodipodi:namedview
     id="namedview3931"
     pagecolor="#505050"
     bordercolor="#eeeeee"
     borderopacity="1"
     inkscape:showpageshadow="0"
     inkscape:pageopacity="0"
     inkscape:pagecheckerboard="0"
     inkscape:deskcolor="#505050"
     inkscape:document-units="px"
     showgrid="false"
     inkscape:zoom="0.79839098"
     inkscape:cx="277.43299"
     inkscape:cy="212.302"
     inkscape:window-width="1910"
     inkscape:window-height="987"
     inkscape:window-x="0"
     inkscape:window-y="0"
     inkscape:window-maximized="1"
     inkscape:current-layer="layer1" /><defs
     id="defs3926" /><g
     inkscape:label="Layer 1"
     inkscape:groupmode="layer"
     id="layer1"><g
       inkscape:label="Layer 1"
       id="layer1-3"
       transform="translate(126.99999)"
       style="fill:#6272a4;fill-opacity:1;stroke:none"><rect
         style="fill:#9083ce;fill-opacity:0;stroke:none;stroke-width:12.6999"
         id="rect234"
         width="135.46666"
         height="135.46667"
         x="-126.99999"
         y="0" /><rect
         style="fill:#9083ce;fill-opacity:0;stroke:none;stroke-width:12.6999"
         id="rect2611"
         width="76.199997"
         height="76.200012"
         x="-97.366661"
         y="29.633335" /></g><g
       inkscape:label="Layer 1"
       id="layer1-6"
       transform="translate(126.99999)"
       style="fill:#6272a4;fill-opacity:1;stroke:none"><rect
         style="fill:#9083ce;fill-opacity:0;stroke:none;stroke-width:12.6999"
         id="rect234-7"
         width="135.46666"
         height="135.46667"
         x="-126.99999"
         y="0" /><rect
         style="fill:#9083ce;fill-opacity:0;stroke:none;stroke-width:12.6999"
         id="rect2611-5"
         width="76.199997"
         height="76.200012"
         x="-97.366661"
         y="29.633335" /></g><g
       inkscape:label="Layer 1"
       id="layer1-7"
       transform="translate(126.99999)"
       style="fill:#6272a4;fill-opacity:1;stroke:none"><rect
         style="fill:#9083ce;fill-opacity:0;stroke:none;stroke-width:12.6999"
         id="rect234-0"
         width="135.46666"
         height="135.46667"
         x="-126.99999"
         y="0" /><rect
         style="fill:#9083ce;fill-opacity:0;stroke:none;stroke-width:12.6999"
         id="rect2611-9"
         width="76.199997"
         height="76.200012"
         x="-97.366661"
         y="29.633335" /></g><path
       id="path6405"
       style="fill:#e6e0cd;fill-opacity:1;stroke:none;stroke-width:9.83952;stroke-linecap:square;stroke-linejoin:miter;stroke-dasharray:none;stroke-opacity:1;paint-order:normal"
       class="UnoptimicedTransforms"
       d="m 90.771341,44.679381 c -2.809702,0.0012 -5.53383,1.040571 -7.900292,1.881022 -3.155284,1.120601 -5.67433,1.886916 -11.443229,2.498038 -2.425583,0.256952 -5.425837,0.486929 -8.423776,0.68368 -2.997938,-0.196751 -5.996643,-0.426728 -8.422224,-0.68368 -5.7689,-0.611122 -8.287947,-1.377437 -11.443229,-2.498038 -2.366464,-0.84045 -5.09083,-1.87908 -7.900293,-1.880506 -0.936487,-4.76e-4 -1.882789,0.114083 -2.828251,0.390157 -3.781848,1.104303 -7.553272,4.787242 -9.869165,8.630998 -2.315896,3.843756 -3.175576,7.8481 -3.748092,15.615584 -0.572515,7.767484 -0.85759,19.296786 0.217041,25.376745 1.07463,6.079959 3.508198,6.711029 6.550505,6.586159 3.042307,-0.12488 6.693373,-1.00444 8.512141,-4.980572 1.818769,-3.976121 1.806428,-11.050503 4.433321,-14.556734 2.626895,-3.50623 7.893581,-3.444244 11.115084,-2.230355 3.221503,1.21389 4.397276,3.580644 8.898682,4.316016 1.275271,0.208335 2.815995,0.28528 4.48448,0.191719 1.668488,0.09356 3.210761,0.01662 4.486031,-0.191719 4.501406,-0.735372 5.677179,-3.102126 8.898682,-4.316016 3.221503,-1.213889 8.488189,-1.275875 11.115084,2.230355 2.626893,3.506231 2.615068,10.580613 4.433838,14.556734 1.818768,3.976132 5.467244,4.855692 8.509561,4.980572 3.04229,0.12487 5.47794,-0.5062 6.55257,-6.586159 1.07463,-6.079959 0.78955,-17.609261 0.21704,-25.376745 -0.57252,-7.767484 -1.43219,-11.771828 -3.74809,-15.615584 -2.3159,-3.843756 -6.08732,-7.526695 -9.869167,-8.630998 -0.945462,-0.276075 -1.891684,-0.391082 -2.828252,-0.390673 z m -8.905973,8.064615 c 2.613984,2.97e-4 4.732801,2.119578 4.732528,4.733561 -2.97e-4,2.613579 -2.118948,4.73223 -4.732528,4.732528 -2.613983,2.72e-4 -4.733263,-2.118545 -4.733561,-4.732528 -2.72e-4,-2.614387 2.119175,-4.733834 4.733561,-4.733561 z m 12.319144,0 c 2.614185,1.2e-5 4.733318,2.119376 4.733045,4.733561 -2.97e-4,2.613781 -2.119263,4.732515 -4.733045,4.732528 -2.613781,-1.3e-5 -4.732746,-2.118747 -4.733044,-4.732528 -2.72e-4,-2.614185 2.11886,-4.733549 4.733044,-4.733561 z m -59.194778,0.798926 h 6.051827 v 7.00319 h 7.00319 v 6.05131 h -7.00319 v 7.00319 h -6.051827 v -7.00319 h -7.002673 v -6.05131 h 7.002673 z m 46.875634,11.329016 c 2.61358,2.97e-4 4.732231,2.118948 4.732528,4.732528 2.73e-4,2.613983 -2.118544,4.733263 -4.732528,4.733561 -2.614386,2.72e-4 -4.733833,-2.119175 -4.733561,-4.733561 2.98e-4,-2.613983 2.119578,-4.732801 4.733561,-4.732528 z m 12.319144,0 c 2.613782,1.2e-5 4.732748,2.118746 4.733045,4.732528 2.73e-4,2.614185 -2.11886,4.733548 -4.733045,4.733561 -2.614184,-1.3e-5 -4.733316,-2.119377 -4.733044,-4.733561 2.98e-4,-2.613782 2.119263,-4.732516 4.733044,-4.732528 z"
       transform="matrix(1.2907131,0,0,1.2907131,-13.587816,-26.470935)"
       sodipodi:nodetypes="ssscsssssssssssscssssssssssccccccccccccccccccccccccccccccccc" /></g></svg>
