<?xml version="1.0" encoding="UTF-8" standalone="no"?>
<!-- Created with Inkscape (http://www.inkscape.org/) -->

<svg
   width="512"
   height="512"
   viewBox="0 0 135.46666 135.46667"
   version="1.1"
   id="svg3929"
   xml:space="preserve"
   inkscape:version="1.2 (dc2aedaf03, 2022-05-15)"
   sodipodi:docname="note.svg"
   inkscape:export-filename="note.svg"
   inkscape:export-xdpi="96"
   inkscape:export-ydpi="96"
   xmlns:inkscape="http://www.inkscape.org/namespaces/inkscape"
   xmlns:sodipodi="http://sodipodi.sourceforge.net/DTD/sodipodi-0.dtd"
   xmlns="http://www.w3.org/2000/svg"
   xmlns:svg="http://www.w3.org/2000/svg"><sodipodi:namedview
     id="namedview3931"
     pagecolor="#505050"
     bordercolor="#eeeeee"
     borderopacity="1"
     inkscape:showpageshadow="0"
     inkscape:pageopacity="0"
     inkscape:pagecheckerboard="0"
     inkscape:deskcolor="#505050"
     inkscape:document-units="px"
     showgrid="false"
     inkscape:zoom="1.0626584"
     inkscape:cx="298.30847"
     inkscape:cy="267.72479"
     inkscape:window-width="1910"
     inkscape:window-height="987"
     inkscape:window-x="0"
     inkscape:window-y="0"
     inkscape:window-maximized="1"
     inkscape:current-layer="layer1" /><defs
     id="defs3926" /><g
     inkscape:label="Layer 1"
     inkscape:groupmode="layer"
     id="layer1"><path
       id="rect2240"
       style="color:#000000;fill:#e6e0cd;fill-opacity:1;stroke-width:1;stroke-linecap:round"
       d="m 34.424806,24.146592 c -5.328106,0.138085 -10.044618,5.111415 -9.720846,10.469277 -0.07721,10.786861 -0.0096,21.574809 -0.0341,32.36212 0.01355,11.680389 -0.02226,23.362998 0.04117,35.042001 0.389418,5.20007 5.320992,9.64439 10.56681,9.27639 11.154788,0.073 22.310621,0.009 33.465839,0.0325 10.940787,-0.0173 21.884098,0.0266 32.823311,-0.045 5.16932,-0.43691 9.57053,-5.34497 9.19826,-10.56797 0.0729,-11.929292 0.008,-23.859493 0.0304,-35.789158 0,-6.122762 0,-12.245526 0,-18.368288 -3.26917,3.265721 -6.53614,6.533669 -9.80115,9.803543 -0.0159,14.977929 0.0443,29.962583 -0.0431,44.936293 -0.50874,0.48109 -1.366195,0.11417 -2.017245,0.22515 -21.403129,-0.004 -42.807818,0.0166 -64.209969,-0.0239 -0.512212,-0.48159 -0.153299,-1.3752 -0.249136,-2.023464 0.0016,-21.758772 -0.01322,-43.518817 0.0216,-65.276789 0.421735,-0.520586 1.292778,-0.173818 1.898432,-0.261077 14.797849,0 29.595697,0 44.393544,0 3.269944,-3.265737 6.537551,-6.533845 9.803543,-9.803542 -18.722461,-0.0021 -37.444917,0.0012 -56.167375,0.01202 z" /><path
       style="color:#000000;fill:#e6e0cd;fill-opacity:1;stroke-width:1;stroke-linecap:round;-inkscape-stroke:none"
       d="m 112.99752,13.227932 c -2.4762,-0.372331 -5.31884,0.214471 -7.32451,2.220349 L 61.306771,59.816914 47.409837,89.011974 76.604897,75.11504 120.97113,30.746405 c 2.00566,-2.005712 2.59256,-4.846015 2.22035,-7.322118 -0.3722,-2.476102 -1.59821,-4.795597 -3.49939,-6.696971 -1.90125,-1.901454 -4.21836,-3.127052 -6.69457,-3.499384 z m -1.15928,7.70056 c 0.60416,0.09085 1.54501,0.503016 2.3473,1.305383 0.80224,0.802329 1.21454,1.742987 1.30538,2.347292 0.0909,0.604307 -0.0352,0.667511 -0.0264,0.65868 l -43.417714,43.420136 -8.177203,3.892196 3.892195,-8.177204 43.417732,-43.420136 c -0.009,0.0088 0.0545,-0.117189 0.65868,-0.02634 z"
       id="rect2770" /></g></svg>
