<?xml version="1.0" encoding="UTF-8" standalone="no"?>
<!-- Created with Inkscape (http://www.inkscape.org/) -->

<svg
   width="512"
   height="512"
   viewBox="0 0 135.46667 135.46667"
   version="1.1"
   id="svg5"
   inkscape:version="1.2 (dc2aedaf03, 2022-05-15)"
   xml:space="preserve"
   sodipodi:docname="arch.svg"
   xmlns:inkscape="http://www.inkscape.org/namespaces/inkscape"
   xmlns:sodipodi="http://sodipodi.sourceforge.net/DTD/sodipodi-0.dtd"
   xmlns:xlink="http://www.w3.org/1999/xlink"
   xmlns="http://www.w3.org/2000/svg"
   xmlns:svg="http://www.w3.org/2000/svg"><sodipodi:namedview
     id="namedview7"
     pagecolor="#2e2a36"
     bordercolor="#4d4f68"
     borderopacity="1"
     inkscape:showpageshadow="0"
     inkscape:pageopacity="0"
     inkscape:pagecheckerboard="0"
     inkscape:deskcolor="#282a36"
     inkscape:document-units="px"
     showgrid="true"
     inkscape:zoom="0.89823679"
     inkscape:cx="282.21957"
     inkscape:cy="352.35698"
     inkscape:window-width="1914"
     inkscape:window-height="1008"
     inkscape:window-x="0"
     inkscape:window-y="33"
     inkscape:window-maximized="1"
     inkscape:current-layer="layer1"><inkscape:grid
       type="xygrid"
       id="grid9"
       spacingx="8.4666669"
       spacingy="8.4666669"
       visible="false" /></sodipodi:namedview><defs
     id="defs2"><linearGradient
       x1="112.49854"
       y1="6.1372099"
       x2="112.49853"
       y2="129.3468"
       id="path1082_2_"
       gradientUnits="userSpaceOnUse"
       gradientTransform="translate(287,-83)"><stop
         id="stop193"
         style="stop-color:#ffffff;stop-opacity:0"
         offset="0" /><stop
         id="stop195"
         style="stop-color:#ffffff;stop-opacity:0.27450982"
         offset="1" /><midPointStop
         offset="0"
         style="stop-color:#FFFFFF"
         id="midPointStop197" /><midPointStop
         offset="0.5"
         style="stop-color:#FFFFFF"
         id="midPointStop199" /><midPointStop
         offset="1"
         style="stop-color:#000000"
         id="midPointStop201" /></linearGradient><linearGradient
       x1="541.33502"
       y1="104.50665"
       x2="606.91248"
       y2="303.14029"
       id="linearGradient2544"
       xlink:href="#path1082_2_"
       gradientUnits="userSpaceOnUse"
       gradientTransform="matrix(-0.3937741,0,0,0.393752,357.51969,122.00151)" /><linearGradient
       id="linearGradient3388"><stop
         id="stop3390"
         style="stop-color:#000000;stop-opacity:0"
         offset="0" /><stop
         id="stop3392"
         style="stop-color:#000000;stop-opacity:0.37113401"
         offset="1" /></linearGradient><linearGradient
       x1="490.72305"
       y1="237.72447"
       x2="490.72305"
       y2="183.9644"
       id="linearGradient4416"
       xlink:href="#linearGradient3388"
       gradientUnits="userSpaceOnUse"
       gradientTransform="matrix(0.749107,0,0,0.749107,-35.459862,91.44108)" /></defs><g
     inkscape:label="Layer 1"
     inkscape:groupmode="layer"
     id="layer1"><path
       d="m 67.722353,9.154421 c -5.214597,12.78481 -8.359796,21.147571 -14.165569,33.552351 3.55967,3.773234 7.928987,8.167373 15.024754,13.13013 C 60.952892,52.697761 55.749224,49.546135 51.860445,46.275691 44.430163,61.780122 32.789046,83.86548 9.165474,126.31225 27.732809,115.593 42.125878,108.98447 55.539525,106.46283 c -0.57599,-2.47731 -0.903467,-5.15701 -0.881221,-7.95299 l 0.02196,-0.594824 c 0.294628,-11.895596 6.482697,-21.043314 13.813068,-20.4222 7.330386,0.621107 13.028211,10.773709 12.733597,22.669304 -0.05545,2.23839 -0.307878,4.39167 -0.749031,6.38883 13.268006,2.59546 27.507182,9.18707 45.823302,19.7613 -3.61159,-6.64917 -6.83523,-12.64292 -9.9137,-18.35136 -4.84908,-3.75836 -9.90692,-8.649881 -20.22394,-13.945257 7.09132,1.842622 12.16862,3.96852 16.12628,6.344767 C 80.990201,42.085973 78.4556,34.342504 67.722269,9.154421 Z"
       id="path2518"
       style="fill:#1793d1;fill-opacity:1;fill-rule:evenodd;stroke:none;stroke-width:0.192617"
       inkscape:connector-curvature="0" /></g></svg>
